<svg xmlns="http://www.w3.org/2000/svg" version="1.1" xmlns:xlink="http://www.w3.org/1999/xlink" xmlns:svgjs="http://svgjs.com/svgjs" width="45" height="45" x="0" y="0" viewBox="0 0 1707 1707" style="enable-background:new 0 0 512 512" xml:space="preserve" class=""><g><g xmlns="http://www.w3.org/2000/svg" id="Layer_x0020_1"><path d="m1427 0h-1148c-153 0-279 126-279 279v1148c0 154 126 280 279 280h1148c154 0 280-126 280-280v-1148c0-153-126-279-280-279zm-112 663v381c0 2 2 5 5 5h164c3 0 5-3 5-5v-381c0-3-2-5-5-5h-164c-3 0-5 2-5 5zm-582-5h-164c-3 0-5 2-5 5v381c0 2 2 5 5 5h164c3 0 5-3 5-5v-381c0-3-2-5-5-5zm-324 391c22 0 40 17 40 40 0 22-18 40-40 40h-231c-22 0-40-18-40-40v-471c0-22 18-40 40-40s40 18 40 40v431zm160-471h164c47 0 85 38 85 85v381c0 46-38 85-85 85h-164c-47 0-85-39-85-85v-381c0-47 38-85 85-85zm335 51c110-110 295-29 295 123 0 22-17 40-40 40-22 0-40-18-40-40 0-26-10-50-27-67-59-58-159-16-159 67v203c0 26 11 49 28 66 58 59 158 17 158-66v-76h-113c-22 0-40-18-40-40s18-40 40-40h153c23 0 40 18 40 40v116c0 48-19 91-50 122-110 111-296 30-296-122v-203c0-48 20-91 51-123zm416-51h164c47 0 85 38 85 85v381c0 46-38 85-85 85h-164c-47 0-85-39-85-85v-381c0-47 38-85 85-85z" fill="#0228df" data-original="#0228df" class=""></path></g></g></svg>