<svg xmlns="http://www.w3.org/2000/svg" version="1.1" xmlns:xlink="http://www.w3.org/1999/xlink" xmlns:svgjs="http://svgjs.com/svgjs" width="512" height="512" x="0" y="0" viewBox="0 0 456.042 456.042" style="enable-background:new 0 0 512 512" xml:space="preserve" class=""><g>
<g xmlns="http://www.w3.org/2000/svg">
	<g>
		<path d="M431.688,207.414c-9.221-14.66-8.079-33.565,2.84-47.008c16.998-20.81,24.431-47.824,20.472-74.4    c-7.742-52.451-56.539-88.695-108.99-80.952c-23.597,3.483-45.053,15.627-60.186,34.064    c-17.979,22.739-47.665,32.753-75.744,25.552C142.092,45.728,71.621,85.487,52.679,153.475    c-9.253,33.212-4.694,68.753,12.641,98.554h44.928c21.498,0.005,42.855-3.461,63.248-10.264l88-29.328    c4.196-1.383,8.719,0.898,10.102,5.094c0.266,0.806,0.401,1.649,0.402,2.498v40c17.673,0,32,14.327,32,32v32    c0,17.673-14.327,32-32,32v40c0,4.418-3.582,8-8,8c-0.859-0.001-1.712-0.138-2.528-0.408l-88-29.328    c-5.64-1.88-11.352-3.44-17.096-4.8c42.959,77.084,140.274,104.747,217.357,61.787s104.747-140.274,61.787-217.357    C434.294,211.724,433.017,209.553,431.688,207.414z M224,196.03c0,13.255-10.745,24-24,24h-72c0,4.418-3.582,8-8,8H88    c-4.418,0-8-3.582-8-8v-88c0-4.418,3.582-8,8-8h32c4.418,0,8,3.582,8,8c4.418,0,8-3.582,8-8v-24c0-13.255,10.745-24,24-24    s24,10.745,24,24v24c0,4.418,3.582,8,8,8h8c13.255,0,24,10.745,24,24V196.03z M288,100.03c0-39.765,32.236-72,72-72    c39.765,0,72,32.235,72,72c0,39.764-32.235,72-72,72C320.254,171.986,288.044,139.776,288,100.03z M355.576,243.23l-32,16    l-7.152-14.32l32-16L355.576,243.23z M296.24,234.086l8-32l15.52,3.888l-8,32L296.24,234.086z M304.24,421.974l-8-32l15.52-3.888    l8,32L304.24,421.974z M348.424,395.23l-32-16l7.152-14.32l32,16L348.424,395.23z M432.968,312.414l-36.688,36.68    c-3.124,3.123-8.188,3.123-11.312,0l-36.688-36.68c-9.369-9.372-9.369-24.564,0-33.936l3.424-3.424    c8.103-8.059,20.756-9.309,30.28-2.992l8.648,5.768l8.648-5.768c9.527-6.315,22.181-5.065,30.288,2.992l3.408,3.424    c4.511,4.489,7.04,10.596,7.024,16.96C440.015,301.808,437.483,307.92,432.968,312.414z" fill="#0228df" data-original="#0228df" class=""></path>
	</g>
</g>
<g xmlns="http://www.w3.org/2000/svg">
	<g>
		<path d="M421.654,289.788c-0.002-0.002-0.004-0.004-0.006-0.006l-3.4-3.416c-2.699-2.695-6.924-3.11-10.096-0.992l-13.088,8.72    c-2.688,1.794-6.192,1.794-8.88,0l-13.08-8.72c-3.173-2.116-7.399-1.698-10.096,1l-3.416,3.416c-3.123,3.124-3.123,8.188,0,11.312    l31.024,31.024l31.032-31.024C424.774,297.979,424.777,292.914,421.654,289.788z" fill="#0228df" data-original="#0228df" class=""></path>
	</g>
</g>
<g xmlns="http://www.w3.org/2000/svg">
	<g>
		<path d="M272,276.03v64c8.837,0,16-7.163,16-16v-32C288,283.193,280.837,276.03,272,276.03z" fill="#0228df" data-original="#0228df" class=""></path>
	</g>
</g>
<g xmlns="http://www.w3.org/2000/svg">
	<g>
		<polygon points="232,239.126 232,376.934 256,384.934 256,231.126   " fill="#0228df" data-original="#0228df" class=""></polygon>
	</g>
</g>
<g xmlns="http://www.w3.org/2000/svg">
	<g>
		<rect x="56" y="268.03" width="16" height="80" fill="#0228df" data-original="#0228df" class=""></rect>
	</g>
</g>
<g xmlns="http://www.w3.org/2000/svg">
	<g>
		<polygon points="89.768,364.03 56.816,364.03 65.28,451.254 112,452.03   " fill="#0228df" data-original="#0228df" class=""></polygon>
	</g>
</g>
<g xmlns="http://www.w3.org/2000/svg">
	<g>
		<path d="M178.552,256.942c-22.022,7.351-45.087,11.095-68.304,11.088H88v80h22.248c23.217-0.007,46.282,3.737,68.304,11.088    L216,371.598V244.462L178.552,256.942z M136,332.03h-32v-16h32V332.03z M136,300.03h-32v-16h32V300.03z" fill="#0228df" data-original="#0228df" class=""></path>
	</g>
</g>
<g xmlns="http://www.w3.org/2000/svg">
	<g>
		<polygon points="352,82.982 352,117.078 377.576,100.03   " fill="#0228df" data-original="#0228df" class=""></polygon>
	</g>
</g>
<g xmlns="http://www.w3.org/2000/svg">
	<g>
		<rect x="96" y="140.03" width="16" height="72" fill="#0228df" data-original="#0228df" class=""></rect>
	</g>
</g>
<g xmlns="http://www.w3.org/2000/svg">
	<g>
		<path d="M200,148.03h-8c-13.255,0-24-10.745-24-24v-24c0-4.418-3.582-8-8-8s-8,3.582-8,8v24c0,13.255-10.745,24-24,24v56h72    c4.418,0,8-3.582,8-8v-40C208,151.612,204.418,148.03,200,148.03z" fill="#0228df" data-original="#0228df" class=""></path>
	</g>
</g>
<g xmlns="http://www.w3.org/2000/svg">
	<g>
		<path d="M8,308.03c0.024,19.001,13.389,35.373,32,39.2v-78.4C21.389,272.657,8.024,289.029,8,308.03z" fill="#0228df" data-original="#0228df" class=""></path>
	</g>
</g>
<g xmlns="http://www.w3.org/2000/svg">
	<g>
		<path d="M360,44.03c-30.928,0-56,25.072-56,56c0.035,30.913,25.087,55.965,56,56c30.928,0,56-25.072,56-56    C416,69.102,390.928,44.03,360,44.03z M398.658,104.468c-0.586,0.878-1.339,1.632-2.218,2.218l-48,32    c-3.675,2.452-8.643,1.461-11.095-2.215c-0.877-1.315-1.345-2.86-1.345-4.441v-64c-0.001-4.418,3.581-8.001,7.999-8.001    c1.581,0,3.126,0.468,4.441,1.345l48,32C400.116,95.825,401.109,100.792,398.658,104.468z" fill="#0228df" data-original="#0228df" class=""></path>
	</g>
</g>
<g xmlns="http://www.w3.org/2000/svg">
	<g>
		<path d="M0,204.03h16c0-108.56,64.376-176,168-176v-16C70.504,12.03,0,85.63,0,204.03z" fill="#0228df" data-original="#0228df" class=""></path>
	</g>
</g>
<g xmlns="http://www.w3.org/2000/svg">
</g>
<g xmlns="http://www.w3.org/2000/svg">
</g>
<g xmlns="http://www.w3.org/2000/svg">
</g>
<g xmlns="http://www.w3.org/2000/svg">
</g>
<g xmlns="http://www.w3.org/2000/svg">
</g>
<g xmlns="http://www.w3.org/2000/svg">
</g>
<g xmlns="http://www.w3.org/2000/svg">
</g>
<g xmlns="http://www.w3.org/2000/svg">
</g>
<g xmlns="http://www.w3.org/2000/svg">
</g>
<g xmlns="http://www.w3.org/2000/svg">
</g>
<g xmlns="http://www.w3.org/2000/svg">
</g>
<g xmlns="http://www.w3.org/2000/svg">
</g>
<g xmlns="http://www.w3.org/2000/svg">
</g>
<g xmlns="http://www.w3.org/2000/svg">
</g>
<g xmlns="http://www.w3.org/2000/svg">
</g>
</g></svg>